<mxfile host="app.diagrams.net" modified="2023-06-09T16:01:06.249Z" agent="Mozilla/5.0 (Windows NT 10.0; Win64; x64) AppleWebKit/537.36 (KHTML, like Gecko) Chrome/114.0.0.0 Safari/537.36" version="21.3.6" etag="3kiTlakj1QvBAN4Fjtgn" type="github">
  <diagram name="Page-1" id="NF9XIQLUqZQIiAyMFW7P">
    <mxGraphModel>
      <root>
        <mxCell id="0" />
        <mxCell id="1" parent="0" />
      </root>
    </mxGraphModel>
  </diagram>
</mxfile>
